<?xml version="1.0" encoding="utf-8"?>
<!-- Generator: Adobe Illustrator 22.0.1, SVG Export Plug-In . SVG Version: 6.00 Build 0)  -->
<svg version="1.1" id="Layer_1" xmlns="http://www.w3.org/2000/svg" xmlns:xlink="http://www.w3.org/1999/xlink" x="0px" y="0px"
	 viewBox="0 0 200 200" style="enable-background:new 0 0 200 200;" xml:space="preserve">
<style type="text/css">
	.st0{fill:#151A30;}
	.st1{fill:none;stroke:#BDBDBD;stroke-width:2;stroke-linecap:round;stroke-linejoin:round;stroke-miterlimit:10;}
</style>
<g>
	<path class="st0" d="M115.1,74.8c-6.7,1.3-13.1,3.3-19.3,5.9c-14.8,6.2-28.1,14.7-38.1,27.5c-5.3,6.7-9.1,14.4-12.2,22.4
		c-0.3,0.7-0.8,1.3-1,2.1c-1.8,0-3.5,0-5.3,0c-8.9-0.2-19,7.4-18.7,19.4c0.4,14.8,15.6,25.1,28.7,19.8c4.4-1.8,7.8-2.1,11.7,0.2
		c0.4,0.2,0.8,0.5,1.2,0.6c1.5,0.5,2.1,1.3,2.1,3c0.1,3.4,1,6.5,4.7,8.1c5.1,2.2,10.4,3.3,15.8,3.8c6.4,0.6,12.9,0.6,19.4,0.4
		c5.3-0.2,10.5-0.7,15.5-2.2c3.6-1,7.3-2.3,8.7-6.5c1.8-5.7-0.1-11.7-4.3-15.4c5.5-4.8,11-9.6,16.1-14.9c1.4-1.5,2.6-3,3.5-4.6
		c1,1.3,2.3,2.3,3.3,3.6c2.7,3.3,6.4,4.6,10.9,4.7c6.2,0.2,14.3-9.3,14.6-16.5c0.3-8.6-3.4-14.9-10.5-19.3c-0.9-0.6-1.8-1.7-2.9-1.8
		c0.1-3.8,0.2-7.6,0.3-11.4c0-0.8-0.2-2.8-0.3-3.6"/>
	<path class="st0" d="M96.1,42.5c-3.3-0.6-6.6-1.2-9.8-1.8c-0.6-0.1-1.4-0.2-1.8-0.6c-2.8-3.6-7.3-4.9-10.8-7.7
		c-2.1-1.7-4.4-3.1-6.2-5.2c-2.8-3.4-2.5-7.4,1.7-9.3c4.1-1.9,8.5-2.3,12.8-3c9.1-1.4,18.2-1.5,27.1,0.7c14.2,3.5,26.4,10,34,23.2
		c0.6,1,1.2,1.8,2.7,1.8c2.3,0,4.6,0.5,6.9,1.1c12.8,3.6,21.4,11.4,25.1,24.4c0.6,2,0.2,4.6,2.6,6.1c0.8,0.5,0.6,1.7-0.5,2.7
		c-1,0.8-1.3,2.1-1.6,3.5c-1.7,8.1-6.2,14.1-13.6,18c-1.9,1-4.4,1.1-5.8,3.1c0,0,0,0.1,0,0.1c-0.1,0-0.1-0.1-0.1-0.1l-43.7-24.9
		c0,0,0,0,0,0c1.8-0.3,2.1-1.3,1.9-2.7c-0.1-0.7-0.4-1.4-0.5-1.9c-1-0.7-2.1-0.6-3.1-0.5c-3.8,0.3-7.6,0.7-11.3,0.9
		c-11.5,0.4-22.9-0.3-34.3-1.8c-3.1-0.4-6.2-0.8-9.3-1.7c-5.6-1.5-7.5-5.9-3-10.2c5.1-4.8,11-8.3,17.3-11.4
		c3.9-1.9,8.4-2.2,11.9-4.7"/>
	<path class="st1" d="M157.8,115c0.3-0.1,0.6-0.2,0.9-0.2"/>
	<path class="st1" d="M76.4,123.4c0.9-0.1,1.9,0.1,2.7-0.3c7.4-3.9,14.1-1.9,20.3,2.8c8.1,6.1,7.9,14.7,6.6,23.5
		c-0.5,3.8-3.4,6.7-3.6,10.7c4.5-0.3,9-0.4,13.5,0.1c2.3,0.3,7.1,2.1,8.9,3.3"/>
	<path class="st1" d="M145.6,138.6c-0.3,1.9-1,3.7-1.8,5.3"/>
</g>
</svg>
